<svg width="1280" height="350" viewBox="0 0 1280 350" fill="none" xmlns="http://www.w3.org/2000/svg">
<path d="M427.312 -72L-309.45 353.37M427.312 -72H852.682M427.312 -72H852.683L1589.45 353.37M427.312 -72L852.684 -71.999M438.22 -72L-214.871 353.37M449.128 -72L-133.049 353.37M460.033 -72L-60.9508 353.37M470.943 -72L3.59354 353.37M481.851 -72L62.1541 353.37M492.755 -72L115.911 353.37M503.664 -72L165.775 353.37M514.572 -72L212.449 353.37M525.476 -72L256.488 353.37M536.384 -72L298.353 353.37M547.292 -72L338.41 353.37M558.197 -72L376.964 353.37M569.105 -72L414.283 353.37M580.009 -72L450.585 353.37M590.917 -72L486.073 353.37M601.826 -72L520.919 353.37M612.73 -72L555.276 353.37M623.638 -72L589.299 353.37M634.548 -72L623.124 353.37M645.453 -72L656.877 353.37M656.361 -72L690.7 353.37M667.269 -72L724.723 353.37M678.173 -72L759.08 353.37M689.082 -72L793.926 353.37M699.986 -72L829.41 353.37M710.894 -72L865.716 353.37M721.802 -72L903.035 353.37M732.707 -72L941.589 353.37M743.615 -72L981.646 353.37M754.523 -72L1023.51 353.37M765.427 -72L1067.55 353.37M776.335 -72L1114.22 353.37M787.244 -72L1164.09 353.37M798.148 -72L1217.84 353.37M809.058 -72L1276.41 353.37M819.966 -72L1340.95 353.37M830.871 -72L1413.05 353.37M841.779 -72L1494.87 353.37M427.312 -71.9985H852.687M427.308 -71.9968H852.688M427.304 -71.9944H852.693M427.296 -71.9895H852.701M427.283 -71.9824H852.713M427.263 -71.9705H852.735M427.234 -71.9521H852.769M427.183 -71.9248H852.813M427.117 -71.8853H852.884M427.017 -71.8286H852.979M426.88 -71.7502H853.115M426.693 -71.6423H853.302M426.445 -71.4963H853.558M426.107 -71.3027H853.891M425.667 -71.0488H854.333M425.095 -70.7185H854.904M424.359 -70.2942H855.636M423.429 -69.7559H856.573M422.253 -69.0771H857.748M420.787 -68.2297H859.216M418.966 -67.1804H861.032M416.732 -65.8894H863.269M414 -64.3125H865.998M410.689 -62.3997H869.315M406.687 -60.092H873.306M401.898 -57.325H878.104M396.179 -54.0234H883.821M389.39 -50.1047H890.607M381.373 -45.4756H898.625M371.943 -40.0317H908.053M360.902 -33.6575H919.094M348.025 -26.2229H931.971M333.066 -17.5852H946.933M315.753 -7.58691H964.256M295.773 3.94653H984.229M272.806 17.2068H1007.2M246.48 32.4036H1033.51M216.406 49.7678H1063.59M182.142 69.5513H1097.86M143.212 92.0276H1136.79M99.0991 117.496H1180.9M49.2397 146.282H1230.76M-6.97314 178.738H1286.98M-70.1968 215.245H1350.22M-141.162 256.216H1421.18M-220.63 302.097H1500.65M-309.437 353.37H1589.46" stroke="url(#paint0_linear_1112_699)" stroke-opacity="0.2"/>
<defs>
<linearGradient id="paint0_linear_1112_699" x1="640.004" y1="353.37" x2="640.004" y2="140.685" gradientUnits="userSpaceOnUse">
<stop stop-color="#B3B3B3"/>
<stop offset="1" stop-color="#4D4D4D" stop-opacity="0"/>
</linearGradient>
</defs>
</svg>
